<?xml version="1.0" encoding="utf-8"?>
<!-- Generator: Adobe Illustrator 27.6.1, SVG Export Plug-In . SVG Version: 6.00 Build 0)  -->
<svg version="1.1" id="Layer_1" xmlns="http://www.w3.org/2000/svg" xmlns:xlink="http://www.w3.org/1999/xlink" x="0px" y="0px"
	 viewBox="0 0 1920 1080" style="enable-background:new 0 0 1920 1080;" xml:space="preserve">
<style type="text/css">
	.st0{fill:#021D4C;}
</style>
<rect width="100%" height="100%" fill="#ffffff"/>
<g>
	<g>
		<path class="st0" d="M34.4,763l80.9-127.4H38.2v-11.5H130v11.5L49,763h79.2v11.5H34.4V763z"/>
		<path class="st0" d="M151.3,696.7c0-23.6,17-40,39.4-40c22.3,0,39.4,15.3,39.4,39.8v16.2h-66.4v20.2c0,19.8,10.4,31.7,27,31.7
			c15.8,0,27-10.9,27-29h12.4c0,23.6-17,39.8-39.4,39.8c-22.4,0-39.4-15.6-39.4-40V696.7z M217.7,701.6v-5.1
			c0-18.1-11.3-28.8-27-28.8c-16.6,0-27,11.9-27,31.9v1.9H217.7z"/>
		<path class="st0" d="M264.2,657.8h12.4v10.4c14.4-9.6,20.6-11.5,28.5-11.5c23.8,0,37.9,15.8,37.9,38.5v79.2h-12.4V697
			c0-17-8.9-29.2-27.1-29.2c-18.1,0-27,12.1-27,29.2v77.5h-12.4V657.8z"/>
		<path class="st0" d="M382,671h-12.4v-10.9H382v-27.9h12.3v27.9h20.4v10.7h-20.4v69.8c0,13.2,5.3,23.2,22.4,23.2v11.7
			c-22.6,0-34.7-12.3-34.7-34.9V671z"/>
		<path class="st0" d="M444.4,657.8h12.4v12.6c13-11.1,19.4-14.7,31.3-14.7v14.2c-1.9-0.4-3.8-0.6-5.7-0.6
			c-15.1,0-25.6,10.4-25.6,30v75.2h-12.4V657.8z"/>
		<path class="st0" d="M508.3,657.8h12.3v77.5c0,17,9,29.2,27.1,29.2c18.1,0,27-12.1,27-29.2v-77.5h12.4v116.7h-12.4V764
			c-14.3,9.6-20.7,11.5-28.5,11.5c-23.9,0-37.9-15.7-37.9-38.5V657.8z"/>
		<path class="st0" d="M625.5,657.8h12.4v10.4c14.4-9.6,20.6-11.5,28.5-11.5c14.7,0,25.6,6,31.9,16c18.9-14.9,26.6-16,34.5-16
			c23.9,0,37.9,15.8,37.9,38.5v79.2h-12.4V697c0-17-8.9-29.2-27-29.2c-17.7,0-27,11.5-27,27.9v78.8h-12.4V697
			c0-17-8.9-29.2-27.1-29.2c-18.1,0-27,12.1-27,29.2v77.5h-12.4V657.8z"/>
		<path class="st0" d="M863,671.2h-12.4v-11.1H863v-4.9c0-21.5,10.7-37.3,36.2-37.3V629c-19.6,0-23.9,10.4-23.9,26.8v4.2h21.7v10.7
			h-21.7v103.7H863V671.2z"/>
		<path class="st0" d="M920.5,657.8h12.4v77.5c0,17,8.9,29.2,27.1,29.2c18.1,0,27-12.1,27-29.2v-77.5h12.4v116.7h-12.4V764
			c-14.2,9.6-20.6,11.5-28.5,11.5c-23.8,0-37.9-15.7-37.9-38.5V657.8z M932.9,621.1h14v14.1h-14V621.1z M973.7,621.1h14.1v14.1
			h-14.1V621.1z"/>
		<path class="st0" d="M1037.7,657.8h12.4v12.6c13-11.1,19.4-14.7,31.3-14.7v14.2c-1.9-0.4-3.8-0.6-5.7-0.6
			c-15.1,0-25.5,10.4-25.5,30v75.2h-12.4V657.8z"/>
		<path class="st0" d="M48.2,853.5h54.3c28.3,0,47,16.2,47,46.6v57.1c0,30.4-18.7,46.6-47,46.6H48.2V853.5z M101.8,992.4
			c22.2,0,34.9-13.4,34.9-36.2v-55c0-22.8-12.8-36.2-34.9-36.2H61v127.4H101.8z"/>
		<path class="st0" d="M184.7,848.4h14.1v14.1h-14.1V848.4z M185.6,887.2h12.4v116.7h-12.4V887.2z"/>
		<path class="st0" d="M268.9,1031.4c21.5,0,30.4-11.7,30.4-31.3v-6.6c-14.2,9.6-20.2,11.5-28.1,11.5c-23.8,0-38.3-15.8-38.3-38.6
			v-41.7c0-22.8,14.5-38.5,38.3-38.5c7.9,0,13.9,1.7,28.1,10.9v-9.8h12.4v113.9c0,26.4-18.1,43.9-46,41.1L268.9,1031.4z
			 M245.2,964.7c0,17,8.9,29.2,27,29.2c18.1,0,27-12.1,27-29.2v-38.3c0-17-8.9-29.2-27-29.2c-18.1,0-27,12.1-27,29.2V964.7z"/>
		<path class="st0" d="M350,848.4h14.1v14.1H350V848.4z M350.9,887.2h12.4v116.7h-12.4V887.2z"/>
		<path class="st0" d="M405.2,900.4h-12.3v-10.9h12.3v-27.9h12.4v27.9H438v10.6h-20.5V970c0,13.2,5.3,23.2,22.4,23.2v11.7
			c-22.6,0-34.7-12.3-34.7-34.9V900.4z"/>
		<path class="st0" d="M528.5,990.7c-10.2,9.8-21.3,14.3-31.3,14.3c-21.7,0-37.1-10.6-37.1-33c0-21.1,17.9-33.5,39.4-33.5h28.9v-9.4
			c0-20-9.5-31.9-26.2-31.9c-15.8,0-26.2,10.6-26.2,26h-12.4c0-21.1,16.6-37.1,38.6-37.1c22.6,0,38.5,15.8,38.5,40v77.7h-12.4V990.7
			z M528.5,949.2h-27.7c-17,0-28.3,8.9-28.3,22.4c0,14.5,9.8,22.6,26.2,22.6c16,0,29.8-11.3,29.8-29V949.2z"/>
		<path class="st0" d="M577.1,848.4h12.4v155.5h-12.4V848.4z"/>
		<path class="st0" d="M623.6,926.2c0-23.6,17-40,39.4-40c22.4,0,39.4,15.3,39.4,39.8v16.2h-66.4v20.2c0,19.8,10.4,31.7,27.1,31.7
			c15.7,0,27.1-10.9,27.1-29h12.3c0,23.6-17,39.8-39.4,39.8c-22.4,0-39.4-15.5-39.4-40V926.2z M690,931.1V926
			c0-18.1-11.3-28.7-27.1-28.7c-16.6,0-27.1,11.9-27.1,31.9v1.9H690z"/>
		<path class="st0" d="M736.4,887.2h12.4v10.4c14.5-9.6,20.7-11.5,28.5-11.5c23.9,0,37.9,15.8,37.9,38.5v79.2h-12.3v-77.5
			c0-17-9-29.2-27.1-29.2c-18.1,0-27.1,12.1-27.1,29.2v77.5h-12.4V887.2z"/>
		<path class="st0" d="M905.8,853.5h82.4V865h-69.6v53.9H969v11.5h-50.4v73.5h-12.8V853.5z"/>
		<path class="st0" d="M996.8,926.2c0-23.6,17.1-40,39.4-40c22.3,0,39.4,15.6,39.4,40v38.8c0,23.6-17.1,40-39.4,40
			c-22.4,0-39.4-15.5-39.4-40V926.2z M1009.1,962.4c0,19.8,10.4,31.7,27,31.7c16.6,0,27-11.9,27-31.7v-33.2c0-20-10.4-31.9-27-31.9
			c-16.6,0-27,11.9-27,31.9V962.4z"/>
		<path class="st0" d="M1109.7,887.2h12.4v12.6c13-11.1,19.4-14.7,31.3-14.7v14.3c-1.9-0.4-3.8-0.7-5.8-0.7
			c-15.1,0-25.6,10.5-25.6,30v75.2h-12.4V887.2z"/>
		<path class="st0" d="M1180.6,900.4h-12.3v-10.9h12.3v-27.9h12.4v27.9h20.5v10.6h-20.5V970c0,13.2,5.3,23.2,22.4,23.2v11.7
			c-22.6,0-34.7-12.3-34.7-34.9V900.4z"/>
		<path class="st0" d="M1232.4,966.8h12.4v4c0,13.2,11.1,23.2,27,23.2c16,0,27.1-10,27.1-23.2c0-28.1-60.1-16.4-60.1-56.4
			c0-15.5,13.8-28.3,33-28.3c19.2,0,33,12.1,33,27.7v3h-12.3v-2.3c0-11.5-10.5-17.2-20.7-17.2c-10.2,0-20.6,5.7-20.6,17.2
			c0,27.9,60.1,17.3,60.1,56.4c0,21.7-20.2,34.1-39.4,34.1c-19.8,0-39.4-12.3-39.4-33.4V966.8z"/>
		<path class="st0" d="M1336.7,926.2c0-23.6,17.1-40,39.4-40c22.3,0,39.4,15.3,39.4,39.8h-12.4c0-18.1-11.3-28.7-27-28.7
			c-16.6,0-27.1,11.9-27.1,31.9v33.2c0,19.8,10.4,31.7,27.1,31.7c15.7,0,27-10.9,27-29h12.4c0,23.6-17,39.8-39.4,39.8
			c-22.4,0-39.4-15.5-39.4-40V926.2z"/>
		<path class="st0" d="M1445.4,848.4h12.4v49.2c14.5-9.6,20.6-11.5,28.5-11.5c23.9,0,37.9,15.8,37.9,38.5v79.2h-12.3v-77.5
			c0-17-9-29.2-27.1-29.2c-18.1,0-27,12.1-27,29.2v77.5h-12.4V848.4z"/>
		<path class="st0" d="M1560.4,887.2h12.4v12.6c13-11.1,19.4-14.7,31.3-14.7v14.3c-1.9-0.4-3.8-0.7-5.7-0.7
			c-15.1,0-25.6,10.5-25.6,30v75.2h-12.4V887.2z"/>
		<path class="st0" d="M1626.4,848.4h14.1v14.1h-14.1V848.4z M1627.3,887.2h12.3v116.7h-12.3V887.2z"/>
		<path class="st0" d="M1681.6,900.4h-12.4v-10.9h12.4v-27.9h12.3v27.9h20.4v10.6h-20.4V970c0,13.2,5.3,23.2,22.4,23.2v11.7
			c-22.6,0-34.7-12.3-34.7-34.9V900.4z"/>
		<path class="st0" d="M1746.8,900.4h-12.3v-10.9h12.3v-27.9h12.4v27.9h20.5v10.6h-20.5V970c0,13.2,5.3,23.2,22.4,23.2v11.7
			c-22.6,0-34.7-12.3-34.7-34.9V900.4z"/>
	</g>
	<g>
		<path class="st0" d="M231.7,369.5c0,28.1-22.5,51.1-50.6,51.1H103c-1.7,0-2.8-1.7-2.8-3.4V97.6c0-1.7,1.1-3.4,2.8-3.4h78.1
			c28.1,0,50.6,23,50.6,50.5V369.5z M287.3,369.5V144.8c0-58.4-47.7-105.6-106.2-105.6H72.7c-15.7,0-28.1,12.3-28.1,27.5v381.4
			c0,15.2,12.4,27.5,28.1,27.5h108.4C239.5,475.6,287.3,427.9,287.3,369.5"/>
		<path class="st0" d="M460.3,308.3c0-28.1,22.5-50.6,50.6-50.6h30.3c28.1,0,50.5,22.5,50.5,50.6v62.9c0,28.1-22.5,50.5-50.5,50.5
			h-30.3c-28.1,0-50.6-22.5-50.6-50.5V308.3z M460.3,212.2v-68.5c0-28.1,22.5-51.1,50.6-51.1h30.3c19.6,0,37.1,11.2,45.5,28.6
			c6.7,13.5,23,19.1,37.1,12.4c13.5-6.7,19.1-23,12.3-37.1c-18-36.5-54.4-59-94.9-59h-30.3c-58.4,0-106.2,47.7-106.2,106.2v227.5
			c0,58.4,47.8,106.2,106.2,106.2h30.3c58.4,0,106.2-47.7,106.2-106.2v-62.9c0-58.4-47.8-106.2-106.2-106.2h-30.3
			c-17.4,0-33.7,4.5-47.7,11.8C461.5,214.4,460.3,213.3,460.3,212.2"/>
		<path class="st0" d="M972,366.7c0,7.6-3.1,14.4-8.1,19.4c-5,5-11.9,8.1-19.5,8.1h-19.6h-19.7c-0.8,0-1.7,0.4-2.3,1.1
			c-0.7,0.6-1.1,1.5-1.1,2.3v25.3v25.3c0,7.6-3.1,14.5-8.1,19.4c-5,5-11.9,8.1-19.5,8.1c-7.6,0-14.4-3.1-19.4-8.1
			c-5-5-8.1-11.9-8.1-19.4v-25.3v-25.3c0-0.8-0.4-1.7-1.1-2.3c-0.6-0.6-1.5-1.1-2.3-1.1h-67.6h-61c-4.2,0-8.4-1-12.2-2.8
			c-3.8-1.8-7.2-4.5-9.7-7.8c-2.5-3.4-4.3-7.3-5.3-11.4c-0.9-4.1-0.9-8.3,0.2-12.2l39.1-150.3l39.1-150.2c2-7.3,6.7-13.2,12.8-16.8
			c6.1-3.6,13.6-4.8,20.8-2.9c6.5,1.7,11.7,5.3,15.3,10.1c3.6,4.8,5.6,10.7,5.6,16.8c0,1.1,0,2.3-0.1,3.4c-0.1,1.1-0.2,2.3-0.6,3.4
			l-34.2,131.4l-34.2,131.4c-0.3,0.6-0.2,1.3,0.2,1.8c0.4,0.6,1.2,1,2,1h41.6h48.2c0.8,0,1.7-0.4,2.3-1.1c0.6-0.6,1.1-1.5,1.1-2.3
			V297v-38.8c0-7.6,3.1-14.5,8.1-19.4c5-5,11.9-8.1,19.4-8.1c7.6,0,14.5,3.1,19.5,8.1c5,5,8.1,11.9,8.1,19.4V297v38.8
			c0,0.8,0.4,1.7,1.1,2.3c0.6,0.6,1.5,1.1,2.3,1.1h19.7h19.6c7.6,0,14.5,3.1,19.5,8.1C968.9,352.2,972,359.1,972,366.7"/>
	</g>
</g>
</svg>
